inDegrees=yes
name=ik_XSDot_20210820_202113_orientations
DataType=double
version=3
OpenSimVersion=4.5
endheader
time	pelvis_tilt	pelvis_list	pelvis_rotation	pelvis_tx	pelvis_ty	pelvis_tz	hip_flexion_r	hip_adduction_r	hip_rotation_r	knee_angle_r	knee_angle_r_beta	ankle_angle_r	subtalar_angle_r	mtp_angle_r	hip_flexion_l	hip_adduction_l	hip_rotation_l	knee_angle_l	knee_angle_l_beta	ankle_angle_l	subtalar_angle_l	mtp_angle_l	lumbar_extension	lumbar_bending	lumbar_rotation	arm_flex_r	arm_add_r	arm_rot_r	elbow_flex_r	pro_sup_r	wrist_flex_r	wrist_dev_r	arm_flex_l	arm_add_l	arm_rot_l	elbow_flex_l	pro_sup_l	wrist_flex_l	wrist_dev_l
0	-0.006291284590396976	0.007089259247814787	-9.635801555103331	0	0.9399999999999999	0	0.285677582091926	-0.02109217653837972	-0.09077616846384633	0.5417208119105724	0.009454811794416403	-2.208611335234934	0	0	0.2866015508701617	-0.002055001491660278	-0.08315109966333314	0.5428271045514743	0.009474120243490723	-2.208611335234934	0	0	0	0	0	0	-1.003947359620672	0	53.61933839821836	52.33571952869681	0	0	0	-1.003947359620672	0	53.61933839821836	52.33571952869681	0	0
0.01	-0.02106151223009587	-0.04504927225282489	-9.650226219980944	0	0.9399999999999999	0	0.2862257593418737	0.03803681931230391	-0.06810690585413985	0.5190852924451559	0.009059747451845616	-2.21253106178186	0	0	0.2835440931437848	-0.05891637559366923	-0.08797417613368309	0.5186759807947227	0.009052603615878785	-2.21253106178186	0	0	0	0	0	0	-1.006302598407363	0	53.62675405553094	52.32923413305419	0	0	0	-1.006302598407363	0	53.62675405553094	52.32923413305419	0	0
0.02	-0.01685874938593579	-0.07850754515912851	-9.657637305146405	0	0.9399999999999999	0	0.281147908912143	0.06694716236314063	-0.05951496240720016	0.5165479444443882	0.009015462374963326	-2.216184079782257	0	0	0.2699990075970211	-0.08394117830327449	-0.08797311217096519	0.5140662003815331	0.008972147769874683	-2.216184079782257	0	0	0	0	0	0	-1.008502687660537	0	53.63367273099363	52.32318884810383	0	0	0	-1.008502687660537	0	53.63367273099363	52.32318884810383	0	0
0.03	-0.005850945644870862	-0.09660537424252476	-9.660092890191789	0	0.9399999999999999	0	0.2788763218006031	0.07171499239736515	-0.07162693400330952	0.5399998148115194	0.009424774728620655	-2.217425469928346	0	0	0.2688532858475537	-0.08789313754223793	-0.09846663471529692	0.5386214421685043	0.009400717587680626	-2.217425469928346	0	0	0	0	0	0	-1.009271227510768	0	53.63606901291803	52.32111960396109	0	0	0	-1.009271227510768	0	53.63606901291803	52.32111960396109	0	0
0.04	0.004697691900641243	-0.1353242426804179	-9.666048592224245	0	0.9399999999999999	0	0.2561460645642674	0.09821871611205327	-0.05580296007972414	0.5178340534091368	0.009037909210937604	-2.221848082547651	0	0	0.2390201777290946	-0.1183508961078261	-0.09271174344621053	0.5139538440169263	0.008970186781376724	-2.221848082547651	0	0	0	0	0	0	-1.011897321637469	0	53.64436551310315	52.31382536234024	0	0	0	-1.011897321637469	0	53.64436551310315	52.31382536234024	0	0
0.05	0.008113846819948993	-0.1571214102119017	-9.671667000933192	0	0.9399999999999999	0	0.2533518053547331	0.1058037991350998	-0.06524073712458137	0.5402986582363941	0.009429990530332655	-2.223159481591171	0	0	0.2452489976905445	-0.1241239523378402	-0.1044373494074985	0.5388079628675523	0.009403972988002135	-2.223159481591171	0	0	0	0	0	0	-1.012718821716384	0	53.64691923987512	52.31163149843553	0	0	0	-1.012718821716384	0	53.64691923987512	52.31163149843553	0	0
0.06	0.01094042736719744	-0.1978215866384093	-9.679787371128782	0	0.9399999999999999	0	0.2433856803752983	0.1475632975578615	-0.04618267352672098	0.5158795202518615	0.009003796172003749	-2.227573437803613	0	0	0.2150626319608896	-0.1580445107222947	-0.1013555691940603	0.5130566132718684	0.008954527150725341	-2.227573437803613	0	0	0	0	0	0	-1.015360964299337	0	53.65525054047598	52.30433235231414	0	0	0	-1.015360964299337	0	53.65525054047598	52.30433235231414	0	0
0.07000000000000001	0.02334991006231565	-0.2142941968940353	-9.682334986606561	0	0.9399999999999999	0	0.2322605145418171	0.1433685417349003	-0.05670692642134254	0.5458223796874251	0.009526397656616186	-2.228443373527716	0	0	0.2291349534692796	-0.1655595109038575	-0.1129617821507772	0.5432765977721826	0.009481965380157477	-2.228443373527716	0	0	0	0	0	0	-1.015900517403273	0	53.65693074551649	52.30288224534914	0	0	0	-1.015900517403273	0	53.65693074551649	52.30288224534914	0	0
0.08	0.02437219381737739	-0.248284331758138	-9.686708462649252	0	0.9399999999999999	0	0.2130234512993943	0.164371204752515	-0.03627313713623476	0.5205448998598314	0.009085222407018227	-2.233002804339121	0	0	0.2049428216498378	-0.1918604531192453	-0.1127642993284341	0.5124606270522287	0.008944125228896115	-2.233002804339121	0	0	0	0	0	0	-1.018623013816398	0	53.66552323587359	52.29534610050716	0	0	0	-1.018623013816398	0	53.66552323587359	52.29534610050716	0	0
0.09	0.029449103931541	-0.2587518177977296	-9.694114973705956	0	0.9399999999999999	0	0.2176297985597245	0.159590610406375	-0.04270999823080111	0.5428484570862618	0.009474492915526413	-2.23429007089081	0	0	0.2095928325932055	-0.2001619193294208	-0.1211763078316676	0.5387720357349206	0.009403345941246911	-2.23429007089081	0	0	0	0	0	0	-1.019439167294976	0	53.66805249673022	52.29318456856764	0	0	0	-1.019439167294976	0	53.66805249673022	52.29318456856764	0	0
0.09999999999999999	0.03293470624574946	-0.2802980443441764	-9.707924776289715	0	0.9399999999999999	0	0.2064665301448351	0.1790209357389831	-0.01887399459098395	0.5252729635566332	0.009167742685771434	-2.239167736734559	0	0	0.1909256070401172	-0.2218372352936221	-0.1288095040607062	0.5174381256037907	0.009030998967134119	-2.239167736734559	0	0	0	0	0	0	-1.02243725802693	0	53.67743861379775	52.2850557262766	0	0	0	-1.02243725802693	0	53.67743861379775	52.2850557262766	0	0
0.11	0.03772949885856805	-0.2912172643199682	-9.712180955576388	0	0.9399999999999999	0	0.2069954765510474	0.1775375481376369	-0.02668423450115941	0.5497692351120179	0.00959528327887553	-2.240142596636544	0	0	0.1964279399026144	-0.2284927233200786	-0.1400759884127636	0.5462587849588427	0.009534014365475484	-2.240142596636544	0	0	0	0	0	0	-1.023069552807498	0	53.67938389893115	52.2834095166726	0	0	0	-1.023069552807498	0	53.67938389893115	52.2834095166726	0	0
0.12	0.03039564401564756	-0.3180351071305204	-9.729774685985982	0	0.9399999999999999	0	0.1971188852101669	0.2054164971446112	0.002230405520701205	0.5336804254955225	0.009314480578341158	-2.244560988373279	0	0	0.1838151916569027	-0.2521030978433075	-0.1514348550381097	0.52448597420779	0.009154007130455994	-2.244560988373279	0	0	0	0	0	0	-1.025880761287526	0	53.68810538744703	52.27596963971712	0	0	0	-1.025880761287526	0	53.68810538744703	52.27596963971712	0	0
0.13	0.03868685539765905	-0.3199655936974905	-9.731897200690884	0	0.9399999999999999	0	0.1995835663297112	0.1992275762366706	-0.006616678614450048	0.5507968048806008	0.009613217754631257	-2.245487671325761	0	0	0.1853082712684128	-0.259091648111751	-0.1625093284682777	0.5468812628670279	0.00954487865449424	-2.245487671325761	0	0	0	0	0	0	-1.026469070791258	0	53.68992714665048	52.27441338785204	0	0	0	-1.026469070791258	0	53.68992714665048	52.27441338785204	0	0
0.14	0.02708063830826018	-0.3337492059368489	-9.750762903533673	0	0.9399999999999999	0	0.1840361658554084	0.2322049586319921	0.03298987638467343	0.5258148982461449	0.009177201230434185	-2.250518806919274	0	0	0.1830336860672083	-0.2763899125845087	-0.1720411887354599	0.5123882561788395	0.00894286211887293	-2.250518806919274	0	0	0	0	0	0	-1.029835351557544	0	53.70021278579252	52.26583087193046	0	0	0	-1.029835351557544	0	53.70021278579252	52.26583087193046	0	0
0.15	0.0382265220822802	-0.3380385319332502	-9.75360956146856	0	0.9399999999999999	0	0.1982885882176774	0.219745435822703	0.01982193937817466	0.5529140506865823	0.009650170665019674	-2.251256387600742	0	0	0.1750332645190107	-0.2889115702614622	-0.1880757900614214	0.5490041394486564	0.009581929840457141	-2.251256387600742	0	0	0	0	0	0	-1.03030751656709	0	53.70166976125202	52.26459046671967	0	0	0	-1.03030751656709	0	53.70166976125202	52.26459046671967	0	0
0.16	0.03373809412313813	-0.3434546515455336	-9.769453839618398	0	0.9399999999999999	0	0.2016953829956623	0.2202251879906428	0.04759452354438865	0.5359372389356676	0.00935386940347495	-2.254521133955028	0	0	0.1656764896167996	-0.2941740002653017	-0.199859172278904	0.5230901295993231	0.009129645046192035	-2.254521133955028	0	0	0	0	0	0	-1.03227203171063	0	53.70786302486712	52.25917684982526	0	0	0	-1.03227203171063	0	53.70786302486712	52.25917684982526	0	0
0.17	0.04153314514793523	-0.3501869028811047	-9.775062001038403	0	0.9399999999999999	0	0.2031253369326735	0.2132570786965735	0.0434911364039926	0.5521755010014411	0.009637280541324393	-2.255813399237563	0	0	0.1667206569596808	-0.3007550781863313	-0.2072291133526888	0.5433065832118936	0.009482488724808093	-2.255813399237563	0	0	0	0	0	0	-1.03309180677355	0	53.71040493652865	52.25700477691598	0	0	0	-1.03309180677355	0	53.71040493652865	52.25700477691598	0	0
0.18	0.03511512364247576	-0.3558063099096462	-9.779170602174437	0	0.9399999999999999	0	0.1991758714324003	0.2181930755527744	0.06423063064479687	0.5356411350248644	0.009348701415303404	-2.259175949120038	0	0	0.1533335043179327	-0.2987094469705898	-0.2132946614228871	0.5141277700322966	0.008973222362999808	-2.259175949120038	0	0	0	0	0	0	-1.035139425963153	0	53.71683932757772	52.25140946956169	0	0	0	-1.035139425963153	0	53.71683932757772	52.25140946956169	0	0
0.19	0.04780016845144063	-0.3619146574388792	-9.782757391020921	0	0.9399999999999999	0	0.1970063067572369	0.2275921488447077	0.05995278522398132	0.5558894154643199	0.009702100576839066	-2.260203925160122	0	0	0.1614649331112464	-0.2914955543865961	-0.2156941470545413	0.5463729820512189	0.00953600748073365	-2.260203925160122	0	0	0	0	0	0	-1.035786071971286	0	53.71884777850797	52.24968658106138	0	0	0	-1.035786071971286	0	53.71884777850797	52.24968658106138	0	0
0.2	0.04208590015575997	-0.3691605384015008	-9.786666247227698	0	0.9399999999999999	0	0.1956283525495031	0.2366649778765265	0.07570490930133081	0.5396185180664823	0.009418119844992622	-2.263714160848568	0	0	0.1501638071168983	-0.2964052882537978	-0.218100867551383	0.5176181884724284	0.009034141657052432	-2.263714160848568	0	0	0	0	0	0	-1.037933891141261	0	53.72558946313593	52.24383628078063	0	0	0	-1.037933891141261	0	53.72558946313593	52.24383628078063	0	0
0.21	0.0535306905757485	-0.3773094442497433	-9.792748406305268	0	0.9399999999999999	0	0.1895242452108061	0.2431336637055527	0.07531377975550327	0.560177799807586	0.009776947003220033	-2.264641940239028	0	0	0.1593133062878503	-0.2909101206473142	-0.220192758296997	0.5497334447366666	0.009594658618985124	-2.264641940239028	0	0	0	0	0	0	-1.038523065091299	0	53.72741409062026	52.24227742217483	0	0	0	-1.038523065091299	0	53.72741409062026	52.24227742217483	0	0
0.2200000000000001	0.05053817029406937	-0.3891407617000971	-9.806482614954191	0	0.9399999999999999	0	0.1954031762545437	0.2485726575024863	0.1046461345866598	0.5478774254521689	0.009562264971490129	-2.26961775397271	0	0	0.1349191316236427	-0.3015931688176528	-0.2286863185759148	0.5231540882953811	0.00913076133602353	-2.26961775397271	0	0	0	0	0	0	-1.041552211353286	0	53.73693540352412	52.23399565380686	0	0	0	-1.041552211353286	0	53.73693540352412	52.23399565380686	0	0
0.2300000000000001	0.05921443319689752	-0.3991917717074003	-9.808308369571332	0	0.9399999999999999	0	0.183581002871907	0.2525921492155984	0.09744082384237007	0.5645978580797234	0.009854091573198843	-2.270287525497541	0	0	0.151968855619579	-0.2984888617425606	-0.2367180506598881	0.5530635480191297	0.009652779885695576	-2.270287525497541	0	0	0	0	0	0	-1.041975997726477	0	53.73824772085767	52.23287241579984	0	0	0	-1.041975997726477	0	53.73824772085767	52.23287241579984	0	0
0.2400000000000001	0.04830765431569623	-0.413195203731188	-9.822658244928812	0	0.9399999999999999	0	0.1944517264876493	0.2654179005036467	0.1259508964011932	0.5490843787319599	0.009583330280140228	-2.274604026160358	0	0	0.1327444172944557	-0.3148406289868022	-0.2554732577235997	0.5191393706310399	0.009060691294242798	-2.274604026160358	0	0	0	0	0	0	-1.04456939476704	0	53.74643440969154	52.22571096078102	0	0	0	-1.04456939476704	0	53.74643440969154	52.22571096078102	0	0
